<svg xmlns="http://www.w3.org/2000/svg" width="40" height="40" viewBox="0 0 40 40"><g><g><g/><g><path fill="#ff9f0d" d="M39.92 19.96c0 11.024-8.936 19.96-19.96 19.96C8.936 39.92 0 30.984 0 19.96 0 8.936 8.936 0 19.96 0c11.024 0 19.96 8.936 19.96 19.96zM12.014 8.28L8.623 11.67c-.492.45-.682 1.136-.69 1.835-.09 1.858.855 3.982 1.66 5.647 2.097 3.971 5.438 7.258 9.08 9.907 2.22 1.443 4.921 2.846 7.78 2.932.647-.001 1.312-.174 1.813-.687l3.392-3.365c.517-.533.442-1.409-.28-1.862l-4.925-2.907h-.024c-.535-.31-1.26-.126-1.762.254l-1.452 1.479c-.158.147-.43.125-.65.063-1.79-.377-3.169-1.971-4.452-3.148s-2.737-2.888-3.216-4.744a.611.611 0 0 1 .13-.356l1.249-1.25c.429-.438.592-1.094.304-1.707l-2.728-5.176c-.282-.436-.654-.682-1.065-.658-.247.015-.508.127-.772.351z"/></g></g></g></svg>
